<?xml version="1.0" encoding="utf-8"?>
<!-- Generator: Adobe Illustrator 22.1.0, SVG Export Plug-In . SVG Version: 6.00 Build 0)  -->
<svg version="1.1" id="Слой_1" xmlns="http://www.w3.org/2000/svg" xmlns:xlink="http://www.w3.org/1999/xlink" x="0px" y="0px"
	 viewBox="0 0 30 42.7" style="enable-background:new 0 0 30 42.7;" xml:space="preserve">
<style type="text/css">
	.st0{fill:#FFFFFF;}
</style>
<g>
	<path class="st0" d="M15,0C6.7,0,0,6.7,0,15c0,2.8,0.8,5.5,2.2,7.9L14.1,42c0.2,0.4,0.6,0.6,1.1,0.6l0,0c0.4,0,0.8-0.2,1.1-0.6
		l11.6-19.4c1.4-2.3,2.1-5,2.1-7.7C30,6.7,23.3,0,15,0z M25.7,21.4L15.2,39L4.4,21.6c-1.2-2-1.9-4.2-1.9-6.6C2.5,8.1,8.1,2.5,15,2.5
		S27.5,8.1,27.5,15C27.5,17.2,26.9,19.5,25.7,21.4z"/>
	<path class="st0" d="M15,7.5c-4.1,0-7.5,3.4-7.5,7.5s3.3,7.5,7.5,7.5s7.5-3.4,7.5-7.5S19.1,7.5,15,7.5z M15,20c-2.8,0-5-2.3-5-5
		c0-2.8,2.3-5,5-5c2.8,0,5,2.3,5,5S17.8,20,15,20z"/>
</g>
</svg>
