<?xml version="1.0" encoding="utf-8"?>
<!-- Generator: Adobe Illustrator 22.1.0, SVG Export Plug-In . SVG Version: 6.00 Build 0)  -->
<svg version="1.1" id="Слой_1" xmlns="http://www.w3.org/2000/svg" xmlns:xlink="http://www.w3.org/1999/xlink" x="0px" y="0px"
	 viewBox="0 0 38.8 38.9" style="enable-background:new 0 0 38.8 38.9;" xml:space="preserve">
<style type="text/css">
	.st0{fill:#FFFFFF;}
</style>
<path class="st0" d="M37.8,28.7L33,23.9c-1.3-1.3-3.5-1.3-4.8,0L26,26.1c-1,1-2.6,1-3.7,0l-9.5-9.5c-1-1-1-2.6,0-3.7
	c0.4-0.4,1.4-1.4,2.2-2.2c1.3-1.3,1.3-3.5,0-4.8l-4.8-4.8c-1.3-1.3-3.5-1.3-4.8,0c-1,1-1.3,1.3-1.8,1.7c-4.8,4.8-4.8,12.6,0,17.4
	l15.1,15.1c4.8,4.8,12.6,4.8,17.4,0l1.8-1.8C39.1,32.2,39.1,30,37.8,28.7z M31.4,25.5l4.8,4.8c0.4,0.4,0.4,1.2,0,1.6l-0.8,0.8
	L29,26.3l0.8-0.8C30.2,25,30.9,25,31.4,25.5z M8.6,2.7l4.8,4.8c0.4,0.4,0.4,1.2,0,1.6l-0.8,0.8L6.2,3.5L7,2.7
	C7.4,2.3,8.1,2.3,8.6,2.7z M20.3,33.7L5.2,18.6C1.5,14.9,1.3,9.1,4.6,5.1l6.4,6.4c-1.7,1.9-1.6,4.8,0.2,6.6l9.5,9.5l0,0
	c1.8,1.8,4.7,1.9,6.6,0.2l6.4,6.4C29.8,37.6,24,37.4,20.3,33.7z"/>
</svg>
