<?xml version="1.0" encoding="utf-8"?>
<!-- Generator: Adobe Illustrator 23.1.0, SVG Export Plug-In . SVG Version: 6.00 Build 0)  -->
<svg version="1.1" id="Слой_1" xmlns="http://www.w3.org/2000/svg" xmlns:xlink="http://www.w3.org/1999/xlink" x="0px" y="0px"
	 viewBox="0 0 111.7 118.1" style="enable-background:new 0 0 111.7 118.1;" xml:space="preserve">
<style type="text/css">
	.st0{fill:#F8E6E1;}
	.st1{fill:#D2928B;}
	.st2{fill:#B36363;}
	.st3{fill:#4A354F;}
	.st4{fill:#E6B459;}
	.st5{fill:#FFFFFF;}
</style>
<g>
	<circle class="st0" cx="55.8" cy="62.2" r="55.8"/>
	<g>
		<rect x="41.1" y="54.9" class="st1" width="29.5" height="33.4"/>
		<g>
			<path class="st1" d="M84.8,31.5c-1.6-3.9-5-2-5-2c1.9-17.7-7.1-29.4-24-29.4S30,11.8,31.9,29.5c0,0-3.3-1.9-5,2
				c-1.6,3.9,1.3,13,3.2,15.9c1.8,2.9,5.1,5.1,5.1,5.1s0.2,3.3,1.1,5.5c0.8,2.3,10.5,12.7,13.3,14.3c3.7,2.2,9.2,2.2,12.5,0
				c2.8-1.6,12.5-12,13.3-14.3c0.8-2.3,1.1-5.5,1.1-5.5s3.3-2.2,5.1-5.1C83.4,44.5,86.4,35.3,84.8,31.5z"/>
			<g>
				<path class="st2" d="M56,74.3c-2.3,0-4.7-0.6-6.6-1.7c-1.7-1-5.7-4.9-8.6-8.2l0.6-0.5c3,3.3,6.8,7.1,8.4,8
					c3.6,2.1,8.9,2.1,12.1,0c1.6-0.9,5.4-4.7,8.4-8l0.6,0.5c-2.9,3.3-6.9,7.2-8.6,8.2C60.6,73.7,58.3,74.3,56,74.3z"/>
				
					<rect x="34.4" y="44.9" transform="matrix(0.9925 -0.1224 0.1224 0.9925 -5.697 4.6172)" class="st2" width="0.7" height="7.7"/>
				
					<rect x="73.1" y="48.3" transform="matrix(0.1106 -0.9939 0.9939 0.1106 20.0395 119.7732)" class="st2" width="7.6" height="0.8"/>
				<g>
					<path class="st2" d="M29.1,40.2c-0.2-0.6-1.5-5.6,0.3-7c0.6-0.4,1.1-0.4,1.4-0.3c0.9,0.3,1.4,1.5,1.4,1.6l-0.7,0.3
						c-0.1-0.3-0.5-1-1-1.1c-0.2-0.1-0.5,0-0.7,0.2c-1.1,0.8-0.6,4.2-0.1,6.2L29.1,40.2z"/>
					<path class="st2" d="M82.6,40.2L81.9,40c0.5-2,1-5.4-0.1-6.2c-0.3-0.2-0.5-0.2-0.7-0.1c-0.6,0.2-1,1.1-1,1.1l-0.7-0.3
						c0.1-0.1,0.5-1.3,1.4-1.6c0.3-0.1,0.8-0.1,1.4,0.2C84.1,34.6,82.8,39.6,82.6,40.2z"/>
				</g>
			</g>
			<g>
				<path class="st3" d="M34.3,38.8c5,0,1.2-16.1,5.2-20.1c2-2,4.9-1.7,7.4-1c2.9,0.7,5.9,1.7,9,1.8c3.3,0.1,6.3-1.1,9.5-1.9
					c2.4-0.6,5.1-0.8,7,1.1c3.9,3.9,0.1,20.1,5.2,20.1c-0.3-3.7-0.4-7.8,2.4-9.3l0,0c1.9-17.7-7.1-29.4-24-29.4
					C39,0.1,30,11.8,31.9,29.5v0C34.1,30.9,34.6,34.9,34.3,38.8z"/>
			</g>
		</g>
		<path class="st4" d="M103.6,91.2c-15.8-7-32.9-9.5-32.9-9.5c-7.9,8.2-22.6,8.3-29.5,0c0,0-17.2,2.5-32.9,9.5
			c9.8,16.1,27.5,26.8,47.7,26.8C76.1,118,93.8,107.3,103.6,91.2z"/>
		<polygon class="st5" points="37.1,82.3 41.1,75.1 54,86.7 46.1,95.4 		"/>
		<polygon class="st5" points="74.6,82.3 70.6,75.1 57.7,86.7 65.6,95.4 		"/>
	</g>
</g>
</svg>
